<?xml version="1.0" ?><svg width="32px" height="32px" viewBox="0 0 32 32" xmlns="http://www.w3.org/2000/svg"><defs><style>.cls-1{fill:#ff005c;}</style></defs><title/><g id="Injection"><polygon class="cls-1" points="4 22 16 22 9 29 3 23 4 22"/><path d="M28.79,12.21l1.42-1.42-9-9L19.79,3.21,23.59,7,21.71,8.88,19.62,6.79H18.21L2.79,22.2v1.42L4.88,25.7,3.29,27.29V28.7H4.71L6.3,27.12l2.08,2.09H9.79L25.21,13.8V12.38l-2.09-2.09L25,8.41Zm-7.5,2.67-1.58-1.59-1.42,1.42,1.59,1.58-2.59,2.59-1.58-1.59-1.42,1.42,1.59,1.58-2.59,2.59-1.58-1.59-1.42,1.42,1.59,1.58-2.79,2.8L4.91,22.91l14-14,4.18,4.18Z"/></g></svg>